<svg xmlns="http://www.w3.org/2000/svg" width="29.137" height="29.137" viewBox="0 0 29.137 29.137">
  <path id="Caminho_25035" data-name="Caminho 25035" d="M9.741,25.309a2.914,2.914,0,1,0,2.914,2.914A2.91,2.91,0,0,0,9.741,25.309ZM1,2V4.914H3.914L9.158,15.971,7.192,19.54a2.817,2.817,0,0,0-.364,1.4,2.922,2.922,0,0,0,2.914,2.914H27.223V20.939H10.353a.361.361,0,0,1-.364-.364l.044-.175,1.311-2.375H22.2a2.9,2.9,0,0,0,2.549-1.5L29.962,7.07a1.423,1.423,0,0,0,.175-.7A1.461,1.461,0,0,0,28.68,4.914H7.133L5.764,2H1ZM24.309,25.309a2.914,2.914,0,1,0,2.914,2.914A2.91,2.91,0,0,0,24.309,25.309Z" transform="translate(-1 -2)" fill="#fff"/>
</svg>
