<svg xmlns="http://www.w3.org/2000/svg" width="41.77" height="36.203" viewBox="0 0 41.77 36.203">
  <g id="Grupo_20481" data-name="Grupo 20481" transform="translate(-47 -709)">
    <g id="Grupo_20480" data-name="Grupo 20480" transform="translate(47 717.91)">
      <g id="Grupo_20439" data-name="Grupo 20439">
        <g id="Grupo_20438" data-name="Grupo 20438">
          <path id="Caminho_24949" data-name="Caminho 24949" d="M34.116,27.881a3.422,3.422,0,0,0,3.412-3.412V7.412A3.422,3.422,0,0,0,34.116,4H6.823A3.422,3.422,0,0,0,3.412,7.412V24.469a3.422,3.422,0,0,0,3.412,3.412H0v3.412H40.939V27.881ZM6.823,7.412H34.116V24.469H6.823Z" transform="translate(0 -4)" fill="#fff"/>
        </g>
      </g>
    </g>
    <rect id="Retângulo_818" data-name="Retângulo 818" width="11" height="20" transform="translate(76.77 710)" fill="#6b207e"/>
    <path id="Caminho_24951" data-name="Caminho 24951" d="M15.5,1h-8A2.5,2.5,0,0,0,5,3.5v17A2.5,2.5,0,0,0,7.5,23h8A2.5,2.5,0,0,0,18,20.5V3.5A2.5,2.5,0,0,0,15.5,1Zm-4,21A1.5,1.5,0,1,1,13,20.5,1.5,1.5,0,0,1,11.5,22ZM16,18H7V4h9Z" transform="translate(70.77 708)" fill="#fff"/>
  </g>
</svg>
