<svg xmlns="http://www.w3.org/2000/svg" width="67.123" height="55.338" viewBox="0 0 67.123 55.338">
  <g id="Grupo_20442" data-name="Grupo 20442" transform="translate(-131.999 -39.999)">
    <path id="Caminho_24901" data-name="Caminho 24901" d="M718.759,741.851c3.116,0,13.482,4.56,19.961,13.8,7.307,10.42,9.852,21.236,5.684,24.159a4.32,4.32,0,0,1-2.534.734c-4.737,0-12.178-5.657-18.244-14.308-7.307-10.42-6.774-22.982-5.684-24.159a1.128,1.128,0,0,1,.817-.224m-3.806-11.059h0a5.641,5.641,0,0,0-4.315,1.726c-3.825,4.13-2.413,22,6.407,34.576,8.11,11.564,18.131,19.036,25.529,19.036a9.616,9.616,0,0,0,5.639-1.7c2.337-1.639,5.908-5.876,3.562-15.843-1.412-6-4.695-12.881-9.243-19.367-8.605-12.27-22.319-18.427-27.58-18.427Z" transform="translate(-576.639 -690.793)" fill="#fff"/>
    <path id="Caminho_24946" data-name="Caminho 24946" d="M773.121,741.851a1.13,1.13,0,0,1,.818.224c1.089,1.177,1.622,13.739-5.684,24.159-6.067,8.651-13.508,14.308-18.245,14.308a4.32,4.32,0,0,1-2.533-.734c-4.168-2.922-1.623-13.739,5.685-24.159,6.478-9.238,16.844-13.8,19.96-13.8m3.807-11.059c-5.26,0-18.975,6.158-27.579,18.427-4.548,6.485-7.831,13.363-9.244,19.367-2.345,9.967,1.225,14.2,3.562,15.843a9.618,9.618,0,0,0,5.64,1.7c7.4,0,17.419-7.472,25.529-19.036,8.819-12.577,10.231-30.446,6.407-34.576a5.637,5.637,0,0,0-4.314-1.726Z" transform="translate(-584.12 -690.793)" fill="#fff"/>
  </g>
</svg>
