<svg xmlns="http://www.w3.org/2000/svg" width="27.867" height="28.001" viewBox="0 0 27.867 28.001">
  <path id="whatsapp_1_" data-name="whatsapp (1)" d="M24.057,4.069A13.878,13.878,0,0,0,2.218,20.811L.25,28l7.355-1.929a13.86,13.86,0,0,0,6.631,1.689h.006A13.881,13.881,0,0,0,24.057,4.069ZM14.242,25.417h0a11.518,11.518,0,0,1-5.87-1.608l-.421-.25L3.581,24.7l1.165-4.256-.274-.436a11.532,11.532,0,1,1,9.769,5.4Zm6.326-8.637c-.347-.174-2.051-1.012-2.369-1.128s-.549-.173-.78.174-.9,1.128-1.1,1.359-.4.26-.751.087a9.469,9.469,0,0,1-2.788-1.721,10.458,10.458,0,0,1-1.929-2.4c-.2-.347,0-.517.152-.708a9.807,9.807,0,0,0,.867-1.186.638.638,0,0,0-.029-.607c-.086-.173-.78-1.88-1.069-2.574-.282-.676-.567-.584-.78-.6s-.433-.012-.664-.012A1.273,1.273,0,0,0,8.4,7.9a3.888,3.888,0,0,0-1.213,2.892,6.744,6.744,0,0,0,1.416,3.586,15.454,15.454,0,0,0,5.922,5.235,19.845,19.845,0,0,0,1.976.73,4.753,4.753,0,0,0,2.184.137,3.572,3.572,0,0,0,2.34-1.649,2.9,2.9,0,0,0,.2-1.649C21.145,17.04,20.914,16.953,20.567,16.78Zm0,0" transform="translate(-0.25)" fill="#fff" fill-rule="evenodd"/>
</svg>
