<svg xmlns="http://www.w3.org/2000/svg" width="257.112" height="54.004" viewBox="0 0 257.112 54.004">
  <g id="Grupo_20433" data-name="Grupo 20433" transform="translate(-131.999 -39.999)">
    <text id="Vagalumeria" transform="translate(201.111 83.754)" fill="#fff" font-size="35" font-family="BudokanRounded-Bold, Budokan Rounded" font-weight="700" letter-spacing="-0.02em"><tspan x="0" y="0">Vagalumeria</tspan></text>
    <path id="Caminho_24901" data-name="Caminho 24901" d="M718.515,741.584c3.041,0,13.157,4.45,19.48,13.466,7.131,10.168,9.614,20.724,5.547,23.576a4.217,4.217,0,0,1-2.473.716c-4.623,0-11.885-5.521-17.8-13.963-7.131-10.169-6.611-22.428-5.547-23.576a1.1,1.1,0,0,1,.8-.219M714.8,730.792h0a5.5,5.5,0,0,0-4.211,1.684c-3.732,4.031-2.354,21.469,6.253,33.743,7.914,11.285,17.694,18.577,24.914,18.577a9.385,9.385,0,0,0,5.5-1.66c2.281-1.6,5.765-5.735,3.476-15.461-1.378-5.859-4.582-12.571-9.02-18.9-8.4-11.974-21.781-17.983-26.915-17.983Z" transform="translate(-576.639 -690.793)" fill="#fff"/>
    <path id="Caminho_24946" data-name="Caminho 24946" d="M772.306,741.584a1.1,1.1,0,0,1,.8.219c1.063,1.148,1.583,13.408-5.547,23.576-5.921,8.442-13.182,13.963-17.805,13.963a4.216,4.216,0,0,1-2.472-.716c-4.068-2.852-1.584-13.408,5.547-23.576,6.322-9.016,16.438-13.466,19.479-13.466m3.715-10.792c-5.133,0-18.518,6.009-26.915,17.983-4.439,6.329-7.642,13.041-9.021,18.9-2.288,9.726,1.2,13.862,3.476,15.461a9.387,9.387,0,0,0,5.5,1.66c7.22,0,17-7.292,24.914-18.577,8.607-12.273,9.985-29.712,6.252-33.743a5.5,5.5,0,0,0-4.21-1.684Z" transform="translate(-584.68 -690.793)" fill="#fff"/>
  </g>
</svg>
