<svg xmlns="http://www.w3.org/2000/svg" width="329.318" height="271.156" viewBox="0 0 329.318 271.156">
  <g id="Grupo_20459" data-name="Grupo 20459" transform="translate(-402.949 -158.758)">
    <g id="Grupo_20446" data-name="Grupo 20446" transform="translate(640.962 180.041)">
      <g id="Grupo_20445" data-name="Grupo 20445">
        <rect id="Retângulo_825" data-name="Retângulo 825" width="91.305" height="70.761" rx="30.16" fill="#6b207e"/>
        <path id="Caminho_24963" data-name="Caminho 24963" d="M606.938,240.54l4.475-10.4,4.475-10.4,5.921,5.921,5.921,5.921-10.4,4.475Z" transform="translate(-605.651 -169.484)" fill="#6b207e"/>
      </g>
    </g>
    <g id="Grupo_20448" data-name="Grupo 20448" transform="translate(542.456 158.758)">
      <g id="Grupo_20447" data-name="Grupo 20447">
        <path id="Caminho_24964" data-name="Caminho 24964" d="M554.022,223.064h18.67a32.153,32.153,0,0,0,32.152-32.154h0a32.152,32.152,0,0,0-32.152-32.152h-18.67A32.152,32.152,0,0,0,521.87,190.91h0A32.153,32.153,0,0,0,554.022,223.064Z" transform="translate(-521.87 -158.758)" fill="#fdc978"/>
        <path id="Caminho_24965" data-name="Caminho 24965" d="M561.276,227.443l3.8-9.556,3.8-9.556h-15.22l3.8,9.556Z" transform="translate(-516.366 -150.177)" fill="#fdc978"/>
      </g>
    </g>
    <g id="Grupo_20450" data-name="Grupo 20450" transform="translate(447.707 168.689)">
      <g id="Grupo_20449" data-name="Grupo 20449">
        <rect id="Retângulo_826" data-name="Retângulo 826" width="106.749" height="82.73" rx="35.261" fill="#fff"/>
        <path id="Caminho_24966" data-name="Caminho 24966" d="M534.4,241.627l-5.232-12.154-5.232-12.154-6.923,6.923-6.923,6.923L522.25,236.4Z" transform="translate(-429.16 -158.552)" fill="#fff"/>
      </g>
    </g>
    <text id="oi_" data-name="oi!" transform="translate(473.123 226.358)" fill="#6b207e" font-size="49" font-family="Montserrat-ExtraBold, Montserrat" font-weight="800"><tspan x="0" y="0">oi!</tspan></text>
    <text id="olá_" data-name="olá!" transform="translate(558.32 197.54)" fill="#6b207e" font-size="25" font-family="Montserrat-ExtraBold, Montserrat" font-weight="800"><tspan x="0" y="0">olá!</tspan></text>
    <g id="Grupo_20451" data-name="Grupo 20451" transform="translate(659.427 210.949)">
      <path id="Caminho_24967" data-name="Caminho 24967" d="M630.525,207.72a4.472,4.472,0,1,1-4.472-4.472A4.472,4.472,0,0,1,630.525,207.72Z" transform="translate(-621.581 -203.248)" fill="#fff"/>
      <path id="Caminho_24968" data-name="Caminho 24968" d="M649.889,207.72a4.472,4.472,0,1,1-4.472-4.472A4.472,4.472,0,0,1,649.889,207.72Z" transform="translate(-618.229 -203.248)" fill="#fff"/>
      <path id="Caminho_24969" data-name="Caminho 24969" d="M669.253,207.72a4.472,4.472,0,1,1-4.472-4.472A4.472,4.472,0,0,1,669.253,207.72Z" transform="translate(-614.877 -203.248)" fill="#fff"/>
    </g>
    <g id="Grupo_20456" data-name="Grupo 20456" transform="translate(479.887 247.758)">
      <g id="Grupo_20452" data-name="Grupo 20452">
        <path id="Caminho_24970" data-name="Caminho 24970" d="M688.366,286.09H652.037A15.154,15.154,0,0,0,636.9,270.955H522.461a15.153,15.153,0,0,0-15.135,15.135H471a51.524,51.524,0,0,1,51.464-51.465H636.9A51.524,51.524,0,0,1,688.366,286.09Z" transform="translate(-468.108 -234.625)" fill="#6b207e"/>
        <rect id="Retângulo_827" data-name="Retângulo 827" width="42.106" height="18.085" rx="2.462" transform="translate(0 51.465)" fill="#500164"/>
        <rect id="Retângulo_828" data-name="Retângulo 828" width="42.106" height="18.085" rx="2.462" transform="translate(180.96 51.465)" fill="#500164"/>
        <path id="Caminho_24971" data-name="Caminho 24971" d="M586.677,244.859H528.885a4.945,4.945,0,0,1-4.945-4.946h0a4.944,4.944,0,0,1,4.945-4.945h57.793a4.944,4.944,0,0,1,4.945,4.945h0A4.945,4.945,0,0,1,586.677,244.859Z" transform="translate(-458.944 -234.565)" fill="#efecea" opacity="0.2"/>
        <path id="Caminho_24972" data-name="Caminho 24972" d="M602.393,244.859H596.48a4.946,4.946,0,0,1-4.946-4.946h0a4.945,4.945,0,0,1,4.946-4.945h5.914a4.945,4.945,0,0,1,4.946,4.945h0A4.946,4.946,0,0,1,602.393,244.859Z" transform="translate(-447.243 -234.565)" fill="#efecea" opacity="0.2"/>
      </g>
      <g id="Grupo_20455" data-name="Grupo 20455" transform="translate(10.654 15.579)">
        <path id="Caminho_24973" data-name="Caminho 24973" d="M679.445,393.433H477.616l4.016-40.587c3.418-34.545,29.008-60.651,59.452-60.651h74.893c30.444,0,56.034,26.107,59.452,60.651Z" transform="translate(-477.616 -240.238)" fill="#fdc978"/>
        <path id="Caminho_24974" data-name="Caminho 24974" d="M611.05,247.905h0a8.718,8.718,0,0,0-8.724,9.467l.508,8.714a10.278,10.278,0,0,1-10.11,11.183h-36a10.278,10.278,0,0,1-10.11-11.183l.508-8.714a8.718,8.718,0,0,0-8.726-9.467h0a10.5,10.5,0,0,0-10.109,8.768C522.112,294.336,499.6,347.1,499.6,347.1H649.844s-22.509-52.764-28.685-90.427A10.505,10.505,0,0,0,611.05,247.905Z" transform="translate(-473.81 -247.905)" fill="#fdc978"/>
        <g id="Grupo_20454" data-name="Grupo 20454" transform="translate(44.518 17.269)">
          <circle id="Elipse_166" data-name="Elipse 166" cx="46.879" cy="46.879" r="46.879" transform="matrix(0.23, -0.973, 0.973, 0.23, 0, 91.251)" fill="#500864"/>
          <circle id="Elipse_167" data-name="Elipse 167" cx="46.879" cy="46.879" r="46.879" transform="translate(0 97.32) rotate(-76.717)" fill="#ffe7c3"/>
          <circle id="Elipse_168" data-name="Elipse 168" cx="23.122" cy="23.122" r="23.122" transform="translate(33.274 39.343)" fill="#500864"/>
          <circle id="Elipse_169" data-name="Elipse 169" cx="13.139" cy="13.139" r="13.139" transform="translate(43.257 49.327)" fill="#6b207e"/>
          <g id="Grupo_20453" data-name="Grupo 20453" transform="translate(15.595 21.665)" opacity="0.3">
            <circle id="Elipse_170" data-name="Elipse 170" cx="6.07" cy="6.07" r="6.07" transform="translate(34.731)" fill="#6b207e"/>
            <path id="Caminho_24975" data-name="Caminho 24975" d="M589.762,300.126a6.07,6.07,0,1,1,0-8.584A6.068,6.068,0,0,1,589.762,300.126Z" transform="translate(-520.11 -279.592)" fill="#6b207e"/>
            <circle id="Elipse_171" data-name="Elipse 171" cx="6.07" cy="6.07" r="6.07" transform="translate(69.463 34.731)" fill="#6b207e"/>
            <circle id="Elipse_172" data-name="Elipse 172" cx="6.07" cy="6.07" r="6.07" transform="translate(59.29 59.29)" fill="#6b207e"/>
            <circle id="Elipse_173" data-name="Elipse 173" cx="6.07" cy="6.07" r="6.07" transform="translate(34.731 69.463)" fill="#6b207e"/>
            <path id="Caminho_24976" data-name="Caminho 24976" d="M539.308,333.412a6.069,6.069,0,1,1,0,8.584A6.068,6.068,0,0,1,539.308,333.412Z" transform="translate(-527.358 -272.345)" fill="#6b207e"/>
            <circle id="Elipse_174" data-name="Elipse 174" cx="6.07" cy="6.07" r="6.07" transform="translate(0 34.731)" fill="#6b207e"/>
            <path id="Caminho_24977" data-name="Caminho 24977" d="M547.892,291.542a6.069,6.069,0,1,1-8.583,0A6.069,6.069,0,0,1,547.892,291.542Z" transform="translate(-527.358 -279.592)" fill="#6b207e"/>
          </g>
        </g>
        <line id="Linha_1" data-name="Linha 1" x2="23.757" transform="translate(124.036 79.734)" fill="none" stroke="#6b207e" stroke-linecap="round" stroke-linejoin="round" stroke-width="5"/>
        <path id="Caminho_24978" data-name="Caminho 24978" d="M477.616,379.683H679.445v12.711a14.055,14.055,0,0,1-14.056,14.055H491.671a14.055,14.055,0,0,1-14.055-14.055Z" transform="translate(-477.616 -239.871)" fill="#500864"/>
        <path id="Caminho_24979" data-name="Caminho 24979" d="M636.777,320.974a9.383,9.383,0,1,1-11.966-5.735A9.382,9.382,0,0,1,636.777,320.974Z" transform="translate(-453.222 -236.342)" fill="#ffe7c3" opacity="0.5"/>
        <path id="Caminho_24980" data-name="Caminho 24980" d="M639.771,340.257a6.1,6.1,0,1,1-7.781-3.73A6.1,6.1,0,0,1,639.771,340.257Z" transform="translate(-451.599 -232.625)" fill="#ffe7c3" opacity="0.5"/>
        <path id="Caminho_24981" data-name="Caminho 24981" d="M478.643,369.852H678.221l.462,4.736h-200.5Z" transform="translate(-477.518 -226.796)" fill="#fdc978"/>
      </g>
    </g>
    <g id="Grupo_20458" data-name="Grupo 20458" transform="translate(402.949 307.487)">
      <path id="Caminho_24982" data-name="Caminho 24982" d="M402.951,354.836l47.822-32.318,47.822,32.318-47.822,30.756Z" transform="translate(-402.949 -310.804)" fill="#320040"/>
      <rect id="Retângulo_829" data-name="Retângulo 829" width="81.477" height="88.063" transform="translate(7.086)" fill="#fff"/>
      <g id="Grupo_20457" data-name="Grupo 20457" transform="translate(0 44.036)">
        <path id="Caminho_24983" data-name="Caminho 24983" d="M498.594,350.071V400.86a10.726,10.726,0,0,1-10.714,10.714H413.664a10.726,10.726,0,0,1-10.715-10.714V350.071l36.069,23.2,11.753,7.556,11.754-7.556Z" transform="translate(-402.949 -350.071)" fill="#500864"/>
        <path id="Caminho_24984" data-name="Caminho 24984" d="M495.1,405.928a10.654,10.654,0,0,1-7.667,3.238H413.215a10.673,10.673,0,0,1-7.669-3.238l33.023-35.07,2.855-3.028a12.222,12.222,0,0,1,17.8,0l2.855,3.028Z" transform="translate(-402.499 -347.662)" fill="#6b207e"/>
      </g>
      <text id="_" data-name="@" transform="translate(30.281 47.67)" fill="#6b207e" font-size="40" font-family="Montserrat-ExtraBold, Montserrat" font-weight="800"><tspan x="0" y="0">@</tspan></text>
    </g>
  </g>
</svg>
